<svg xmlns="http://www.w3.org/2000/svg" class="h-6 w-6 text-purple-600" viewBox="0 0 24 24" fill="none" stroke="blue" strokeWidth="2" strokeLinecap="round" strokeLinejoin="round">
  <path d="M22.46 2.55c-.84.37-1.75.62-2.7.73a4.8 4.8 0 0 0 2.1-2.68c-.93.55-1.97.94-3.07 1.17a4.78 4.78 0 0 0-8.14 4.34c-3.98-.2-7.51-2.1-9.88-4.98a4.73 4.73 0 0 0-.64 2.39c0 1.65.85 3.1 2.14 3.95a4.76 4.76 0 0 1-2.17-.6v.06c0 2.31 1.62 4.24 3.76 4.67a4.83 4.83 0 0 1-2.15.08c.61 1.85 2.38 3.2 4.48 3.24a9.57 9.57 0 0 1-5.68 1.86c-.36 0-.72-.02-1.07-.07a13.54 13.54 0 0 0 7.33 2.14c8.7 0 13.46-7.23 13.46-13.46 0-.21 0-.42-.02-.63.92-.67 1.72-1.5 2.36-2.45z"/>
</svg>
